<?xml version="1.0" standalone="no"?>
<!DOCTYPE svg PUBLIC "-//W3C//DTD SVG 20010904//EN"
 "http://www.w3.org/TR/2001/REC-SVG-20010904/DTD/svg10.dtd">
<svg version="1.0" xmlns="http://www.w3.org/2000/svg"
 width="834.000000pt" height="1198.000000pt" viewBox="0 0 834.000000 1198.000000"
 preserveAspectRatio="xMidYMid meet">
<metadata>
Created by potrace 1.16, written by Peter Selinger 2001-2019
</metadata>
<g transform="translate(0.000000,1198.000000) scale(0.100000,-0.100000)"
fill="#000000" stroke="none">
<path d="M2389 11965 c-391 -80 -654 -372 -735 -816 -24 -131 -24 -389 0 -534
58 -357 164 -769 372 -1445 106 -345 477 -1456 663 -1985 77 -219 139 -401
137 -402 -2 -2 -68 28 -147 66 -222 107 -391 149 -562 138 -111 -7 -202 -34
-321 -95 -132 -68 -234 -148 -392 -306 -329 -330 -434 -613 -351 -946 32 -131
73 -255 143 -432 30 -75 54 -141 54 -146 0 -5 -26 -14 -57 -21 -105 -23 -307
-93 -412 -142 -460 -216 -708 -590 -770 -1161 -16 -145 -14 -496 4 -635 72
-563 296 -1064 701 -1573 138 -173 497 -532 674 -674 560 -447 1233 -726 2012
-832 154 -21 710 -30 906 -15 933 73 1708 373 2384 923 145 118 421 390 552
542 254 298 433 569 606 921 155 314 250 576 335 918 125 506 160 845 152
1494 -4 361 -8 452 -26 579 -55 398 -148 686 -291 900 -117 174 -330 347 -549
445 -116 52 -300 111 -404 130 l-65 12 45 126 c697 1949 1063 3231 1063 3724
0 510 -240 883 -645 1002 -121 36 -309 45 -405 21 -430 -111 -934 -869 -1485
-2235 -173 -429 -246 -626 -527 -1426 -77 -220 -145 -411 -150 -425 -9 -22
-17 -6 -65 135 -385 1119 -463 1338 -618 1740 -539 1400 -1007 2199 -1404
2398 l-84 42 -136 2 c-83 1 -162 -3 -202 -12z m296 -569 c207 -102 372 -392
661 -1166 168 -448 1020 -2925 1008 -2928 -6 -2 -88 4 -180 13 -244 23 -567
31 -645 16 -83 -17 -150 -51 -188 -98 -17 -20 -32 -35 -35 -32 -2 2 -56 144
-120 316 -666 1790 -989 2853 -1022 3364 -14 219 43 381 168 482 91 73 242 87
353 33z m4625 -241 c205 -72 296 -331 230 -656 -64 -319 -281 -1035 -557
-1838 -186 -543 -574 -1625 -587 -1638 -9 -9 -1016 171 -1016 182 0 15 894
2596 960 2770 232 619 460 1008 667 1142 96 61 200 74 303 38z m-2945 -4345
c690 -24 1258 -100 1872 -251 639 -156 1031 -323 1230 -525 60 -60 81 -92 127
-186 88 -182 131 -379 157 -728 15 -206 6 -728 -15 -930 -114 -1042 -503
-1883 -1191 -2576 -303 -305 -574 -505 -925 -683 -361 -183 -713 -290 -1142
-347 -164 -22 -619 -30 -803 -15 -825 68 -1552 388 -2104 925 -490 478 -869
1120 -987 1672 -31 146 -42 360 -25 487 55 410 336 780 648 853 128 30 219 3
368 -108 272 -203 872 -947 1107 -1373 134 -241 166 -362 120 -451 -31 -60
-109 -131 -189 -171 -61 -30 -85 -36 -160 -40 -306 -17 -627 214 -1014 729
-136 181 -331 428 -338 428 -9 0 -48 -60 -68 -105 -15 -33 -18 -66 -17 -195 0
-139 3 -164 27 -245 90 -298 312 -593 667 -885 144 -119 356 -240 511 -294
142 -48 213 -59 379 -59 140 -1 164 2 245 27 254 77 452 260 531 491 44 130
43 286 -2 496 l-6 27 79 -19 c105 -26 252 -29 320 -5 28 9 69 30 91 46 l40 28
6 -161 c14 -314 48 -535 116 -738 108 -326 280 -539 497 -614 38 -14 94 -27
125 -31 l55 -6 7 32 c21 105 -1 213 -108 546 -102 319 -135 488 -136 689 0
249 60 475 200 756 193 384 479 724 841 998 184 140 360 231 729 379 273 110
402 173 518 256 l43 31 -6 52 c-12 118 -76 235 -153 280 l-47 28 -505 7 c-603
7 -849 22 -1209 74 -552 79 -885 203 -1105 413 -158 152 -236 333 -236 553 0
164 32 261 109 331 70 64 155 94 299 106 125 12 121 12 427 1z m-1992 -445
c226 -77 484 -335 730 -730 318 -512 569 -1040 747 -1575 73 -219 94 -324 80
-400 -30 -162 -184 -320 -328 -337 -287 -34 -846 478 -1425 1305 -241 344
-422 676 -508 934 -40 117 -49 238 -26 319 34 114 154 276 283 380 170 138
275 162 447 104z m1817 -1390 c240 -77 533 -134 830 -161 96 -8 194 -18 218
-20 l42 -5 -80 -58 c-261 -187 -535 -444 -722 -678 -18 -23 -36 -42 -39 -42
-4 -1 -10 15 -14 35 -28 150 -218 651 -335 884 -44 87 -46 94 -27 87 6 -2 64
-21 127 -42z"/>
</g>
</svg>
